REM DIRINDEX 1\2,1\3
REM DIRNAME folder01,folder02,folder03
TITLE ""
FILE "DISC2Track08.mp3" MP3
  TRACK 01 AUDIO
    TITLE "0:"
    INDEX 01 00:00:00
  TRACK 02 AUDIO
    TITLE "3:cjc133_2028"
    INDEX 01 00:00:17
  TRACK 03 AUDIO
    TITLE "0:"
    INDEX 01 00:01:11
  TRACK 04 AUDIO
    TITLE "2:cjc133_2029"
    INDEX 01 00:01:56
  TRACK 05 AUDIO
    TITLE "2:cjc133_2030"
    INDEX 01 00:03:39
  TRACK 06 AUDIO
    TITLE "2:cjc133_2031"
    INDEX 01 00:06:55
  TRACK 07 AUDIO
    TITLE "0:"
    INDEX 01 00:09:02
  TRACK 08 AUDIO
    TITLE "2:cjc133_2032"
    INDEX 01 00:09:53
  TRACK 09 AUDIO
    TITLE "2:cjc133_2033"
    INDEX 01 00:11:52
  TRACK 10 AUDIO
    TITLE "2:cjc133_2034"
    INDEX 01 00:14:74
  TRACK 11 AUDIO
    TITLE "0:"
    INDEX 01 00:17:29
  TRACK 12 AUDIO
    TITLE "2:cjc133_2035"
    INDEX 01 00:17:72
  TRACK 13 AUDIO
    TITLE "2:cjc133_2036"
    INDEX 01 00:20:16
  TRACK 14 AUDIO
    TITLE "2:cjc133_2037"
    INDEX 01 00:24:06
  TRACK 15 AUDIO
    TITLE "0:"
    INDEX 01 00:26:42
  TRACK 16 AUDIO
    TITLE "2:cjc133_2038"
    INDEX 01 00:27:22
  TRACK 17 AUDIO
    TITLE "2:cjc133_2039"
    INDEX 01 00:29:38
  TRACK 18 AUDIO
    TITLE "2:cjc133_2040"
    INDEX 01 00:32:74
  TRACK 19 AUDIO
    TITLE "0:"
    INDEX 01 00:35:43
  TRACK 20 AUDIO
    TITLE "2:cjc133_2041"
    INDEX 01 00:36:15
  TRACK 21 AUDIO
    TITLE "2:cjc133_2042"
    INDEX 01 00:38:00
  TRACK 22 AUDIO
    TITLE "2:cjc133_2043"
    INDEX 01 00:41:40
  TRACK 23 AUDIO
    TITLE "0:"
    INDEX 01 00:43:52
  TRACK 24 AUDIO
    TITLE "2:cjc133_2044"
    INDEX 01 00:44:24
  TRACK 25 AUDIO
    TITLE "2:cjc133_2045"
    INDEX 01 00:46:35
  TRACK 26 AUDIO
    TITLE "2:cjc133_2046"
    INDEX 01 00:50:13
  TRACK 27 AUDIO
    TITLE "0:"
    INDEX 01 00:52:69
  TRACK 28 AUDIO
    TITLE "2:cjc133_2047"
    INDEX 01 00:53:43
  TRACK 29 AUDIO
    TITLE "2:cjc133_2048"
    INDEX 01 00:55:28
  TRACK 30 AUDIO
    TITLE "2:cjc133_2049"
    INDEX 01 00:59:14
  TRACK 31 AUDIO
    TITLE "0:"
    INDEX 01 01:01:52
  TRACK 32 AUDIO
    TITLE "2:cjc133_2050"
    INDEX 01 01:02:26
  TRACK 33 AUDIO
    TITLE "2:cjc133_2051"
    INDEX 01 01:04:66
  TRACK 34 AUDIO
    TITLE "2:cjc133_2052"
    INDEX 01 01:09:22
  TRACK 35 AUDIO
    TITLE "0:"
    INDEX 01 01:12:30
  TRACK 36 AUDIO
    TITLE "2:cjc133_2053"
    INDEX 01 01:13:02
  TRACK 37 AUDIO
    TITLE "2:cjc133_2054"
    INDEX 01 01:15:01
  TRACK 38 AUDIO
    TITLE "2:cjc133_2055"
    INDEX 01 01:18:25
  TRACK 39 AUDIO
    TITLE "0:"
    INDEX 01 01:20:63
  TRACK 40 AUDIO
    TITLE "2:cjc133_2056"
    INDEX 01 01:21:35
  TRACK 41 AUDIO
    TITLE "2:cjc133_2057"
    INDEX 01 01:24:16
  TRACK 42 AUDIO
    TITLE "2:cjc133_2058"
    INDEX 01 01:29:17
  TRACK 43 AUDIO
    TITLE "0:"
    INDEX 01 01:32:19
  TRACK 44 AUDIO
    TITLE "2:cjc133_2059"
    INDEX 01 01:32:74
  TRACK 45 AUDIO
    TITLE "2:cjc133_2060"
    INDEX 01 01:34:57
  TRACK 46 AUDIO
    TITLE "2:cjc133_2061"
    INDEX 01 01:37:52
  TRACK 47 AUDIO
    TITLE "0:"
    INDEX 01 01:39:57
  TRACK 48 AUDIO
    TITLE "2:cjc133_2062"
    INDEX 01 01:40:31
  TRACK 49 AUDIO
    TITLE "2:cjc133_2063"
    INDEX 01 01:42:73
  TRACK 50 AUDIO
    TITLE "2:cjc133_2064"
    INDEX 01 01:46:68
  TRACK 51 AUDIO
    TITLE "0:"
    INDEX 01 01:49:69
  TRACK 52 AUDIO
    TITLE "2:cjc133_2065"
    INDEX 01 01:50:41
  TRACK 53 AUDIO
    TITLE "2:cjc133_2066"
    INDEX 01 01:52:61
  TRACK 54 AUDIO
    TITLE "2:cjc133_2067"
    INDEX 01 01:56:45
  TRACK 55 AUDIO
    TITLE "0:"
    INDEX 01 01:59:32
  TRACK 56 AUDIO
    TITLE "2:cjc133_2068"
    INDEX 01 02:00:08
  TRACK 57 AUDIO
    TITLE "2:cjc133_2069"
    INDEX 01 02:02:18
  TRACK 58 AUDIO
    TITLE "2:cjc133_2070"
    INDEX 01 02:05:48
  TRACK 59 AUDIO
    TITLE "0:"
    INDEX 01 02:08:07
  TRACK 60 AUDIO
    TITLE "2:cjc133_2071"
    INDEX 01 02:08:58
  TRACK 61 AUDIO
    TITLE "2:cjc133_2072"
    INDEX 01 02:10:65
  TRACK 62 AUDIO
    TITLE "2:cjc133_2073"
    INDEX 01 02:14:22
  TRACK 63 AUDIO
    TITLE "0:"
    INDEX 01 02:16:52
